<svg xmlns="http://www.w3.org/2000/svg" xmlns:xlink="http://www.w3.org/1999/xlink" width="500" zoomAndPan="magnify" viewBox="0 0 375 374.999991" height="500" preserveAspectRatio="xMidYMid meet" version="1.0"><defs><g/><clipPath id="17cf4a79a3"><path d="M 138.34375 102.691406 L 328.875 102.691406 L 328.875 293.226562 L 138.34375 293.226562 Z M 138.34375 102.691406 " clip-rule="nonzero"/></clipPath><clipPath id="fecb683075"><path d="M 233.609375 102.691406 C 180.996094 102.691406 138.34375 145.34375 138.34375 197.957031 C 138.34375 250.574219 180.996094 293.226562 233.609375 293.226562 C 286.222656 293.226562 328.875 250.574219 328.875 197.957031 C 328.875 145.34375 286.222656 102.691406 233.609375 102.691406 Z M 233.609375 102.691406 " clip-rule="nonzero"/></clipPath><clipPath id="08a0951eca"><path d="M 49.476562 93.839844 L 242.679688 93.839844 L 242.679688 287.046875 L 49.476562 287.046875 Z M 49.476562 93.839844 " clip-rule="nonzero"/></clipPath><clipPath id="9eedba46a5"><path d="M 146.078125 93.839844 C 92.726562 93.839844 49.476562 137.089844 49.476562 190.441406 C 49.476562 243.796875 92.726562 287.046875 146.078125 287.046875 C 199.429688 287.046875 242.679688 243.796875 242.679688 190.441406 C 242.679688 137.089844 199.429688 93.839844 146.078125 93.839844 Z M 146.078125 93.839844 " clip-rule="nonzero"/></clipPath><clipPath id="e741c27a8f"><path d="M 112.5 255.554688 L 262.5 255.554688 L 262.5 257.804688 L 112.5 257.804688 Z M 112.5 255.554688 " clip-rule="nonzero"/></clipPath><clipPath id="dee49b08a1"><path d="M 112.5 255.554688 L 170 255.554688 L 170 257.804688 L 112.5 257.804688 Z M 112.5 255.554688 " clip-rule="nonzero"/></clipPath></defs><rect x="-37.5" width="450" fill="#ffffff" y="-37.499999" height="449.999989" fill-opacity="1"/><rect x="-37.5" width="450" fill="#ffffff" y="-37.499999" height="449.999989" fill-opacity="1"/><g clip-path="url(#17cf4a79a3)"><g clip-path="url(#fecb683075)"><path fill="#e7f5f0" d="M 138.34375 102.691406 L 328.875 102.691406 L 328.875 293.226562 L 138.34375 293.226562 Z M 138.34375 102.691406 " fill-opacity="1" fill-rule="nonzero"/></g></g><g clip-path="url(#08a0951eca)"><g clip-path="url(#9eedba46a5)"><path fill="#fff6e8" d="M 49.476562 93.839844 L 242.679688 93.839844 L 242.679688 287.046875 L 49.476562 287.046875 Z M 49.476562 93.839844 " fill-opacity="1" fill-rule="nonzero"/></g></g><g fill="#f5b4a5" fill-opacity="1"><g transform="translate(104.220406, 178.908972)"><g><path d="M 0.453125 -37.71875 L 0.453125 -47.15625 L 33.609375 -47.15625 L 33.609375 -37.71875 L 22.40625 -37.71875 L 22.40625 0 L 11.65625 0 L 11.65625 -37.71875 Z M 0.453125 -37.71875 "/></g></g></g><g fill="#f0b35b" fill-opacity="1"><g transform="translate(138.28681, 178.908972)"><g><path d="M 3.421875 0 L 3.421875 -29.328125 L 13.546875 -29.328125 L 13.546875 -25.09375 L 13.65625 -25.09375 C 13.738281 -25.238281 13.863281 -25.425781 14.03125 -25.65625 C 14.207031 -25.882812 14.578125 -26.285156 15.140625 -26.859375 C 15.710938 -27.429688 16.320312 -27.945312 16.96875 -28.40625 C 17.625 -28.863281 18.460938 -29.269531 19.484375 -29.625 C 20.515625 -29.988281 21.566406 -30.171875 22.640625 -30.171875 C 23.742188 -30.171875 24.828125 -30.019531 25.890625 -29.71875 C 26.960938 -29.414062 27.742188 -29.113281 28.234375 -28.8125 L 29.03125 -28.34375 L 24.8125 -19.78125 C 23.550781 -20.84375 21.796875 -21.375 19.546875 -21.375 C 18.328125 -21.375 17.28125 -21.109375 16.40625 -20.578125 C 15.53125 -20.046875 14.910156 -19.394531 14.546875 -18.625 C 14.179688 -17.863281 13.921875 -17.21875 13.765625 -16.6875 C 13.617188 -16.15625 13.546875 -15.738281 13.546875 -15.4375 L 13.546875 0 Z M 3.421875 0 "/></g></g></g><g fill="#8dbbb8" fill-opacity="1"><g transform="translate(166.751656, 178.908972)"><g><path d="M 5.421875 -3.625 C 2.679688 -6.613281 1.3125 -10.28125 1.3125 -14.625 C 1.3125 -18.96875 2.679688 -22.644531 5.421875 -25.65625 C 8.171875 -28.664062 11.660156 -30.171875 15.890625 -30.171875 C 19.773438 -30.171875 22.972656 -28.953125 25.484375 -26.515625 L 25.484375 -29.328125 L 35.609375 -29.328125 L 35.609375 0 L 25.609375 0 L 25.609375 -3.3125 L 25.484375 -3.3125 C 22.972656 -0.53125 19.773438 0.859375 15.890625 0.859375 C 11.660156 0.859375 8.171875 -0.632812 5.421875 -3.625 Z M 14.03125 -19.59375 C 12.71875 -18.300781 12.0625 -16.644531 12.0625 -14.625 C 12.0625 -12.613281 12.6875 -10.96875 13.9375 -9.6875 C 15.195312 -8.40625 16.859375 -7.765625 18.921875 -7.765625 C 20.898438 -7.765625 22.523438 -8.410156 23.796875 -9.703125 C 25.078125 -11.003906 25.71875 -12.644531 25.71875 -14.625 C 25.71875 -16.644531 25.0625 -18.300781 23.75 -19.59375 C 22.4375 -20.894531 20.828125 -21.546875 18.921875 -21.546875 C 16.972656 -21.546875 15.34375 -20.894531 14.03125 -19.59375 Z M 14.03125 -19.59375 "/></g></g></g><g fill="#f5b4a5" fill-opacity="1"><g transform="translate(205.786806, 178.908972)"><g><path d="M 19.03125 -21.890625 C 17.125 -21.890625 15.484375 -21.179688 14.109375 -19.765625 C 12.742188 -18.359375 12.0625 -16.664062 12.0625 -14.6875 C 12.0625 -12.664062 12.742188 -10.953125 14.109375 -9.546875 C 15.484375 -8.140625 17.125 -7.4375 19.03125 -7.4375 C 19.945312 -7.4375 20.8125 -7.546875 21.625 -7.765625 C 22.445312 -7.992188 23.050781 -8.222656 23.4375 -8.453125 L 23.953125 -8.796875 L 27.375 -1.765625 C 27.113281 -1.578125 26.742188 -1.335938 26.265625 -1.046875 C 25.785156 -0.765625 24.695312 -0.378906 23 0.109375 C 21.3125 0.609375 19.492188 0.859375 17.546875 0.859375 C 13.242188 0.859375 9.460938 -0.65625 6.203125 -3.6875 C 2.941406 -6.71875 1.3125 -10.347656 1.3125 -14.578125 C 1.3125 -18.835938 2.941406 -22.5 6.203125 -25.5625 C 9.460938 -28.632812 13.242188 -30.171875 17.546875 -30.171875 C 19.492188 -30.171875 21.285156 -29.941406 22.921875 -29.484375 C 24.554688 -29.035156 25.71875 -28.582031 26.40625 -28.125 L 27.375 -27.4375 L 23.953125 -20.515625 C 22.691406 -21.429688 21.050781 -21.890625 19.03125 -21.890625 Z M 19.03125 -21.890625 "/></g></g></g><g fill="#e17349" fill-opacity="1"><g transform="translate(233.853214, 178.908972)"><g><path d="M 36.921875 -29.328125 L 22.984375 -15.3125 L 38.296875 0 L 25.265625 0 L 13.546875 -11.71875 L 13.546875 0 L 3.421875 0 L 3.421875 -49.15625 L 13.546875 -49.15625 L 13.546875 -19.09375 L 23.78125 -29.328125 Z M 36.921875 -29.328125 "/></g></g></g><g fill="#8dbbb8" fill-opacity="1"><g transform="translate(104.17614, 223.083619)"><g><path d="M 6.234375 -35.5 L 6.234375 -48.703125 L 18.46875 -48.703125 L 18.46875 -35.5 L 25.9375 -35.5 L 25.9375 -26.15625 L 18.46875 -26.15625 L 18.46875 -14.875 C 18.46875 -11.601562 19.390625 -9.96875 21.234375 -9.96875 C 21.703125 -9.96875 22.1875 -10.054688 22.6875 -10.234375 C 23.195312 -10.421875 23.59375 -10.609375 23.875 -10.796875 L 24.28125 -11.0625 L 27.328125 -1.171875 C 24.703125 0.296875 21.703125 1.03125 18.328125 1.03125 C 16.023438 1.03125 14.039062 0.628906 12.375 -0.171875 C 10.71875 -0.984375 9.460938 -2.066406 8.609375 -3.421875 C 7.753906 -4.785156 7.144531 -6.21875 6.78125 -7.71875 C 6.414062 -9.21875 6.234375 -10.816406 6.234375 -12.515625 L 6.234375 -26.15625 L 1.109375 -26.15625 L 1.109375 -35.5 Z M 6.234375 -35.5 "/></g></g></g><g fill="#e17349" fill-opacity="1"><g transform="translate(133.098013, 223.083619)"><g><path d="M 6.5625 -4.390625 C 3.25 -8.015625 1.59375 -12.453125 1.59375 -17.703125 C 1.59375 -22.960938 3.25 -27.414062 6.5625 -31.0625 C 9.882812 -34.707031 14.109375 -36.53125 19.234375 -36.53125 C 23.941406 -36.53125 27.816406 -35.054688 30.859375 -32.109375 L 30.859375 -35.5 L 43.109375 -35.5 L 43.109375 0 L 31 0 L 31 -4.015625 L 30.859375 -4.015625 C 27.816406 -0.648438 23.941406 1.03125 19.234375 1.03125 C 14.109375 1.03125 9.882812 -0.773438 6.5625 -4.390625 Z M 16.984375 -23.71875 C 15.390625 -22.15625 14.59375 -20.148438 14.59375 -17.703125 C 14.59375 -15.265625 15.351562 -13.269531 16.875 -11.71875 C 18.40625 -10.175781 20.414062 -9.40625 22.90625 -9.40625 C 25.300781 -9.40625 27.269531 -10.1875 28.8125 -11.75 C 30.363281 -13.320312 31.140625 -15.3125 31.140625 -17.71875 C 31.140625 -20.15625 30.34375 -22.15625 28.75 -23.71875 C 27.15625 -25.289062 25.207031 -26.078125 22.90625 -26.078125 C 20.550781 -26.078125 18.578125 -25.289062 16.984375 -23.71875 Z M 16.984375 -23.71875 "/></g></g></g><g fill="#eaaeb2" fill-opacity="1"><g transform="translate(181.953483, 223.083619)"><g><path d="M 44.6875 -35.5 L 27.8125 -18.546875 L 46.359375 0 L 30.578125 0 L 16.390625 -14.1875 L 16.390625 0 L 4.15625 0 L 4.15625 -59.5 L 16.390625 -59.5 L 16.390625 -23.109375 L 28.78125 -35.5 Z M 44.6875 -35.5 "/></g></g></g><g fill="#f0b35b" fill-opacity="1"><g transform="translate(228.242542, 223.083619)"><g><path d="M 15.703125 -35.5 L 15.703125 -18.609375 C 15.703125 -15.109375 16.234375 -12.617188 17.296875 -11.140625 C 18.359375 -9.660156 20.15625 -8.921875 22.6875 -8.921875 C 25.226562 -8.921875 27.03125 -9.660156 28.09375 -11.140625 C 29.15625 -12.617188 29.6875 -15.109375 29.6875 -18.609375 L 29.6875 -35.5 L 41.921875 -35.5 L 41.921875 -15.640625 C 41.921875 -9.734375 40.382812 -5.476562 37.3125 -2.875 C 34.25 -0.269531 29.375 1.03125 22.6875 1.03125 C 16 1.03125 11.117188 -0.269531 8.046875 -2.875 C 4.984375 -5.476562 3.453125 -9.734375 3.453125 -15.640625 L 3.453125 -35.5 Z M 15.703125 -35.5 "/></g></g></g><g fill="#8dbbb8" fill-opacity="1"><g transform="translate(166.625721, 178.908972)"><g><path d="M 5.421875 -3.625 C 2.679688 -6.613281 1.3125 -10.28125 1.3125 -14.625 C 1.3125 -18.96875 2.679688 -22.644531 5.421875 -25.65625 C 8.171875 -28.664062 11.660156 -30.171875 15.890625 -30.171875 C 19.773438 -30.171875 22.972656 -28.953125 25.484375 -26.515625 L 25.484375 -29.328125 L 35.609375 -29.328125 L 35.609375 0 L 25.609375 0 L 25.609375 -3.3125 L 25.484375 -3.3125 C 22.972656 -0.53125 19.773438 0.859375 15.890625 0.859375 C 11.660156 0.859375 8.171875 -0.632812 5.421875 -3.625 Z M 14.03125 -19.59375 C 12.71875 -18.300781 12.0625 -16.644531 12.0625 -14.625 C 12.0625 -12.613281 12.6875 -10.96875 13.9375 -9.6875 C 15.195312 -8.40625 16.859375 -7.765625 18.921875 -7.765625 C 20.898438 -7.765625 22.523438 -8.410156 23.796875 -9.703125 C 25.078125 -11.003906 25.71875 -12.644531 25.71875 -14.625 C 25.71875 -16.644531 25.0625 -18.300781 23.75 -19.59375 C 22.4375 -20.894531 20.828125 -21.546875 18.921875 -21.546875 C 16.972656 -21.546875 15.34375 -20.894531 14.03125 -19.59375 Z M 14.03125 -19.59375 "/></g></g></g><g fill="#f5b4a5" fill-opacity="1"><g transform="translate(205.660875, 178.908972)"><g><path d="M 19.03125 -21.890625 C 17.125 -21.890625 15.484375 -21.179688 14.109375 -19.765625 C 12.742188 -18.359375 12.0625 -16.664062 12.0625 -14.6875 C 12.0625 -12.664062 12.742188 -10.953125 14.109375 -9.546875 C 15.484375 -8.140625 17.125 -7.4375 19.03125 -7.4375 C 19.945312 -7.4375 20.8125 -7.546875 21.625 -7.765625 C 22.445312 -7.992188 23.050781 -8.222656 23.4375 -8.453125 L 23.953125 -8.796875 L 27.375 -1.765625 C 27.113281 -1.578125 26.742188 -1.335938 26.265625 -1.046875 C 25.785156 -0.765625 24.695312 -0.378906 23 0.109375 C 21.3125 0.609375 19.492188 0.859375 17.546875 0.859375 C 13.242188 0.859375 9.460938 -0.65625 6.203125 -3.6875 C 2.941406 -6.71875 1.3125 -10.347656 1.3125 -14.578125 C 1.3125 -18.835938 2.941406 -22.5 6.203125 -25.5625 C 9.460938 -28.632812 13.242188 -30.171875 17.546875 -30.171875 C 19.492188 -30.171875 21.285156 -29.941406 22.921875 -29.484375 C 24.554688 -29.035156 25.71875 -28.582031 26.40625 -28.125 L 27.375 -27.4375 L 23.953125 -20.515625 C 22.691406 -21.429688 21.050781 -21.890625 19.03125 -21.890625 Z M 19.03125 -21.890625 "/></g></g></g><g fill="#e17349" fill-opacity="1"><g transform="translate(233.727283, 178.908972)"><g><path d="M 36.921875 -29.328125 L 22.984375 -15.3125 L 38.296875 0 L 25.265625 0 L 13.546875 -11.71875 L 13.546875 0 L 3.421875 0 L 3.421875 -49.15625 L 13.546875 -49.15625 L 13.546875 -19.09375 L 23.78125 -29.328125 Z M 36.921875 -29.328125 "/></g></g></g><g clip-path="url(#e741c27a8f)"><path fill="#f0b35b" d="M 112.953125 255.554688 L 262.046875 255.554688 L 262.046875 257.734375 L 112.953125 257.734375 Z M 112.953125 255.554688 " fill-opacity="1" fill-rule="nonzero"/></g><g clip-path="url(#dee49b08a1)"><path fill="#e17349" d="M 112.953125 255.554688 L 169.191406 255.554688 L 169.191406 257.734375 L 112.953125 257.734375 Z M 112.953125 255.554688 " fill-opacity="1" fill-rule="nonzero"/></g><g fill="#000000" fill-opacity="1"><g transform="translate(107.382485, 243.69741)"><g><path d="M 0.25 -7.09375 L 1.234375 -7.09375 L 3.203125 -3.78125 L 3.28125 -3.78125 L 5.25 -7.09375 L 6.234375 -7.09375 L 3.671875 -2.921875 L 3.671875 0 L 2.8125 0 L 2.8125 -2.921875 Z M 0.25 -7.09375 "/></g></g></g><g fill="#000000" fill-opacity="1"><g transform="translate(116.84847, 243.69741)"><g><path d="M 6.84375 -3.546875 C 6.84375 -2.796875 6.707031 -2.148438 6.4375 -1.609375 C 6.164062 -1.066406 5.796875 -0.644531 5.328125 -0.34375 C 4.859375 -0.0507812 4.320312 0.09375 3.71875 0.09375 C 3.101562 0.09375 2.5625 -0.0507812 2.09375 -0.34375 C 1.625 -0.644531 1.253906 -1.066406 0.984375 -1.609375 C 0.710938 -2.148438 0.578125 -2.796875 0.578125 -3.546875 C 0.578125 -4.296875 0.710938 -4.941406 0.984375 -5.484375 C 1.253906 -6.023438 1.625 -6.441406 2.09375 -6.734375 C 2.5625 -7.035156 3.101562 -7.1875 3.71875 -7.1875 C 4.320312 -7.1875 4.859375 -7.035156 5.328125 -6.734375 C 5.796875 -6.441406 6.164062 -6.023438 6.4375 -5.484375 C 6.707031 -4.941406 6.84375 -4.296875 6.84375 -3.546875 Z M 6.015625 -3.546875 C 6.015625 -4.160156 5.910156 -4.675781 5.703125 -5.09375 C 5.492188 -5.519531 5.21875 -5.84375 4.875 -6.0625 C 4.53125 -6.28125 4.144531 -6.390625 3.71875 -6.390625 C 3.28125 -6.390625 2.890625 -6.28125 2.546875 -6.0625 C 2.203125 -5.84375 1.925781 -5.519531 1.71875 -5.09375 C 1.507812 -4.675781 1.40625 -4.160156 1.40625 -3.546875 C 1.40625 -2.929688 1.507812 -2.410156 1.71875 -1.984375 C 1.925781 -1.566406 2.203125 -1.25 2.546875 -1.03125 C 2.890625 -0.8125 3.28125 -0.703125 3.71875 -0.703125 C 4.144531 -0.703125 4.53125 -0.8125 4.875 -1.03125 C 5.21875 -1.25 5.492188 -1.566406 5.703125 -1.984375 C 5.910156 -2.410156 6.015625 -2.929688 6.015625 -3.546875 Z M 6.015625 -3.546875 "/></g></g></g><g fill="#000000" fill-opacity="1"><g transform="translate(127.256224, 243.69741)"><g><path d="M 5.515625 -7.09375 L 6.375 -7.09375 L 6.375 -2.390625 C 6.375 -1.859375 6.242188 -1.40625 5.984375 -1.03125 C 5.734375 -0.65625 5.398438 -0.367188 4.984375 -0.171875 C 4.566406 0.0234375 4.109375 0.125 3.609375 0.125 C 3.109375 0.125 2.648438 0.0234375 2.234375 -0.171875 C 1.816406 -0.367188 1.484375 -0.65625 1.234375 -1.03125 C 0.984375 -1.40625 0.859375 -1.859375 0.859375 -2.390625 L 0.859375 -7.09375 L 1.71875 -7.09375 L 1.71875 -2.390625 C 1.71875 -2.023438 1.804688 -1.710938 1.984375 -1.453125 C 2.160156 -1.203125 2.390625 -1.007812 2.671875 -0.875 C 2.960938 -0.738281 3.273438 -0.671875 3.609375 -0.671875 C 3.953125 -0.671875 4.265625 -0.738281 4.546875 -0.875 C 4.835938 -1.007812 5.070312 -1.203125 5.25 -1.453125 C 5.425781 -1.710938 5.515625 -2.023438 5.515625 -2.390625 Z M 5.515625 -7.09375 "/></g></g></g><g fill="#000000" fill-opacity="1"><g transform="translate(137.470079, 243.69741)"><g><path d="M 0.859375 0 L 0.859375 -7.09375 L 3.25 -7.09375 C 3.800781 -7.09375 4.253906 -7 4.609375 -6.8125 C 4.972656 -6.625 5.238281 -6.363281 5.40625 -6.03125 C 5.582031 -5.707031 5.671875 -5.335938 5.671875 -4.921875 C 5.671875 -4.441406 5.5625 -4.023438 5.34375 -3.671875 C 5.125 -3.328125 4.789062 -3.078125 4.34375 -2.921875 L 5.9375 0 L 4.9375 0 L 3.453125 -2.765625 C 3.390625 -2.765625 3.328125 -2.765625 3.265625 -2.765625 L 1.71875 -2.765625 L 1.71875 0 Z M 1.71875 -3.546875 L 3.234375 -3.546875 C 3.804688 -3.546875 4.210938 -3.664062 4.453125 -3.90625 C 4.691406 -4.15625 4.8125 -4.492188 4.8125 -4.921875 C 4.8125 -5.347656 4.691406 -5.6875 4.453125 -5.9375 C 4.210938 -6.195312 3.804688 -6.328125 3.234375 -6.328125 L 1.71875 -6.328125 Z M 1.71875 -3.546875 "/></g></g></g><g fill="#000000" fill-opacity="1"><g transform="translate(146.686767, 243.69741)"><g/></g></g><g fill="#000000" fill-opacity="1"><g transform="translate(152.413384, 243.69741)"><g><path d="M 0.859375 -7.09375 L 1.890625 -7.09375 L 4.296875 -1.203125 L 4.375 -1.203125 L 6.78125 -7.09375 L 7.8125 -7.09375 L 7.8125 0 L 7 0 L 7 -5.390625 L 6.9375 -5.390625 L 4.71875 0 L 3.953125 0 L 1.734375 -5.390625 L 1.65625 -5.390625 L 1.65625 0 L 0.859375 0 Z M 0.859375 -7.09375 "/></g></g></g><g fill="#000000" fill-opacity="1"><g transform="translate(164.289172, 243.69741)"><g><path d="M 1.15625 0 L 0.25 0 L 2.859375 -7.09375 L 3.734375 -7.09375 L 6.34375 0 L 5.4375 0 L 4.734375 -2.015625 L 1.859375 -2.015625 Z M 2.125 -2.765625 L 4.453125 -2.765625 L 3.328125 -5.96875 L 3.265625 -5.96875 Z M 2.125 -2.765625 "/></g></g></g><g fill="#000000" fill-opacity="1"><g transform="translate(173.865948, 243.69741)"><g><path d="M 6.484375 -7.09375 L 6.484375 0 L 5.65625 0 L 1.78125 -5.5625 L 1.71875 -5.5625 L 1.71875 0 L 0.859375 0 L 0.859375 -7.09375 L 1.6875 -7.09375 L 5.5625 -1.515625 L 5.640625 -1.515625 L 5.640625 -7.09375 Z M 6.484375 -7.09375 "/></g></g></g><g fill="#000000" fill-opacity="1"><g transform="translate(184.190595, 243.69741)"><g><path d="M 5.703125 -4.875 C 5.554688 -5.34375 5.3125 -5.710938 4.96875 -5.984375 C 4.625 -6.253906 4.195312 -6.390625 3.6875 -6.390625 C 3.257812 -6.390625 2.875 -6.28125 2.53125 -6.0625 C 2.1875 -5.84375 1.910156 -5.519531 1.703125 -5.09375 C 1.503906 -4.675781 1.40625 -4.160156 1.40625 -3.546875 C 1.40625 -2.929688 1.507812 -2.410156 1.71875 -1.984375 C 1.925781 -1.566406 2.203125 -1.25 2.546875 -1.03125 C 2.898438 -0.8125 3.296875 -0.703125 3.734375 -0.703125 C 4.140625 -0.703125 4.492188 -0.785156 4.796875 -0.953125 C 5.109375 -1.128906 5.347656 -1.367188 5.515625 -1.671875 C 5.691406 -1.984375 5.785156 -2.351562 5.796875 -2.78125 L 3.9375 -2.78125 L 3.9375 -3.546875 L 6.640625 -3.546875 L 6.640625 -2.78125 C 6.640625 -2.195312 6.515625 -1.6875 6.265625 -1.25 C 6.015625 -0.820312 5.671875 -0.488281 5.234375 -0.25 C 4.796875 -0.0195312 4.296875 0.09375 3.734375 0.09375 C 3.109375 0.09375 2.554688 -0.0507812 2.078125 -0.34375 C 1.609375 -0.644531 1.238281 -1.066406 0.96875 -1.609375 C 0.707031 -2.148438 0.578125 -2.796875 0.578125 -3.546875 C 0.578125 -4.296875 0.707031 -4.941406 0.96875 -5.484375 C 1.238281 -6.023438 1.609375 -6.441406 2.078125 -6.734375 C 2.546875 -7.035156 3.082031 -7.1875 3.6875 -7.1875 C 4.1875 -7.1875 4.640625 -7.085938 5.046875 -6.890625 C 5.453125 -6.703125 5.785156 -6.429688 6.046875 -6.078125 C 6.316406 -5.734375 6.5 -5.332031 6.59375 -4.875 Z M 5.703125 -4.875 "/></g></g></g><g fill="#000000" fill-opacity="1"><g transform="translate(194.418299, 243.69741)"><g><path d="M 1.15625 0 L 0.25 0 L 2.859375 -7.09375 L 3.734375 -7.09375 L 6.34375 0 L 5.4375 0 L 4.734375 -2.015625 L 1.859375 -2.015625 Z M 2.125 -2.765625 L 4.453125 -2.765625 L 3.328125 -5.96875 L 3.265625 -5.96875 Z M 2.125 -2.765625 "/></g></g></g><g fill="#000000" fill-opacity="1"><g transform="translate(203.99507, 243.69741)"><g/></g></g><g fill="#000000" fill-opacity="1"><g transform="translate(209.721681, 243.69741)"><g><path d="M 0.46875 -6.328125 L 0.46875 -7.09375 L 5.78125 -7.09375 L 5.78125 -6.328125 L 3.5625 -6.328125 L 3.5625 0 L 2.703125 0 L 2.703125 -6.328125 Z M 0.46875 -6.328125 "/></g></g></g><g fill="#000000" fill-opacity="1"><g transform="translate(218.966069, 243.69741)"><g><path d="M 0.859375 0 L 0.859375 -7.09375 L 3.25 -7.09375 C 3.800781 -7.09375 4.253906 -7 4.609375 -6.8125 C 4.972656 -6.625 5.238281 -6.363281 5.40625 -6.03125 C 5.582031 -5.707031 5.671875 -5.335938 5.671875 -4.921875 C 5.671875 -4.441406 5.5625 -4.023438 5.34375 -3.671875 C 5.125 -3.328125 4.789062 -3.078125 4.34375 -2.921875 L 5.9375 0 L 4.9375 0 L 3.453125 -2.765625 C 3.390625 -2.765625 3.328125 -2.765625 3.265625 -2.765625 L 1.71875 -2.765625 L 1.71875 0 Z M 1.71875 -3.546875 L 3.234375 -3.546875 C 3.804688 -3.546875 4.210938 -3.664062 4.453125 -3.90625 C 4.691406 -4.15625 4.8125 -4.492188 4.8125 -4.921875 C 4.8125 -5.347656 4.691406 -5.6875 4.453125 -5.9375 C 4.210938 -6.195312 3.804688 -6.328125 3.234375 -6.328125 L 1.71875 -6.328125 Z M 1.71875 -3.546875 "/></g></g></g><g fill="#000000" fill-opacity="1"><g transform="translate(228.182751, 243.69741)"><g><path d="M 1.15625 0 L 0.25 0 L 2.859375 -7.09375 L 3.734375 -7.09375 L 6.34375 0 L 5.4375 0 L 4.734375 -2.015625 L 1.859375 -2.015625 Z M 2.125 -2.765625 L 4.453125 -2.765625 L 3.328125 -5.96875 L 3.265625 -5.96875 Z M 2.125 -2.765625 "/></g></g></g><g fill="#000000" fill-opacity="1"><g transform="translate(237.759521, 243.69741)"><g><path d="M 6.5625 -4.875 L 5.703125 -4.875 C 5.640625 -5.195312 5.507812 -5.46875 5.3125 -5.6875 C 5.113281 -5.914062 4.875 -6.085938 4.59375 -6.203125 C 4.320312 -6.328125 4.03125 -6.390625 3.71875 -6.390625 C 3.28125 -6.390625 2.890625 -6.28125 2.546875 -6.0625 C 2.203125 -5.84375 1.925781 -5.519531 1.71875 -5.09375 C 1.507812 -4.675781 1.40625 -4.160156 1.40625 -3.546875 C 1.40625 -2.929688 1.507812 -2.410156 1.71875 -1.984375 C 1.925781 -1.566406 2.203125 -1.25 2.546875 -1.03125 C 2.890625 -0.8125 3.28125 -0.703125 3.71875 -0.703125 C 4.03125 -0.703125 4.320312 -0.757812 4.59375 -0.875 C 4.875 -0.988281 5.113281 -1.15625 5.3125 -1.375 C 5.507812 -1.601562 5.640625 -1.882812 5.703125 -2.21875 L 6.5625 -2.21875 C 6.476562 -1.726562 6.300781 -1.3125 6.03125 -0.96875 C 5.757812 -0.625 5.421875 -0.359375 5.015625 -0.171875 C 4.617188 0.00390625 4.1875 0.09375 3.71875 0.09375 C 3.101562 0.09375 2.5625 -0.0507812 2.09375 -0.34375 C 1.625 -0.644531 1.253906 -1.066406 0.984375 -1.609375 C 0.710938 -2.148438 0.578125 -2.796875 0.578125 -3.546875 C 0.578125 -4.296875 0.710938 -4.941406 0.984375 -5.484375 C 1.253906 -6.023438 1.625 -6.441406 2.09375 -6.734375 C 2.5625 -7.035156 3.101562 -7.1875 3.71875 -7.1875 C 4.1875 -7.1875 4.617188 -7.09375 5.015625 -6.90625 C 5.421875 -6.726562 5.757812 -6.46875 6.03125 -6.125 C 6.300781 -5.78125 6.476562 -5.363281 6.5625 -4.875 Z M 6.5625 -4.875 "/></g></g></g><g fill="#000000" fill-opacity="1"><g transform="translate(247.834876, 243.69741)"><g><path d="M 0.859375 0 L 0.859375 -7.09375 L 1.71875 -7.09375 L 1.71875 -3.578125 L 1.796875 -3.578125 L 4.984375 -7.09375 L 6.109375 -7.09375 L 3.125 -3.890625 L 6.109375 0 L 5.0625 0 L 2.609375 -3.296875 L 1.71875 -2.296875 L 1.71875 0 Z M 0.859375 0 "/></g></g></g><g fill="#000000" fill-opacity="1"><g transform="translate(257.176207, 243.69741)"><g><path d="M 0.859375 0 L 0.859375 -7.09375 L 5.140625 -7.09375 L 5.140625 -6.328125 L 1.71875 -6.328125 L 1.71875 -3.9375 L 4.921875 -3.9375 L 4.921875 -3.171875 L 1.71875 -3.171875 L 1.71875 -0.765625 L 5.1875 -0.765625 L 5.1875 0 Z M 0.859375 0 "/></g></g></g><g fill="#000000" fill-opacity="1"><g transform="translate(265.991258, 243.69741)"><g><path d="M 0.859375 0 L 0.859375 -7.09375 L 3.25 -7.09375 C 3.800781 -7.09375 4.253906 -7 4.609375 -6.8125 C 4.972656 -6.625 5.238281 -6.363281 5.40625 -6.03125 C 5.582031 -5.707031 5.671875 -5.335938 5.671875 -4.921875 C 5.671875 -4.441406 5.5625 -4.023438 5.34375 -3.671875 C 5.125 -3.328125 4.789062 -3.078125 4.34375 -2.921875 L 5.9375 0 L 4.9375 0 L 3.453125 -2.765625 C 3.390625 -2.765625 3.328125 -2.765625 3.265625 -2.765625 L 1.71875 -2.765625 L 1.71875 0 Z M 1.71875 -3.546875 L 3.234375 -3.546875 C 3.804688 -3.546875 4.210938 -3.664062 4.453125 -3.90625 C 4.691406 -4.15625 4.8125 -4.492188 4.8125 -4.921875 C 4.8125 -5.347656 4.691406 -5.6875 4.453125 -5.9375 C 4.210938 -6.195312 3.804688 -6.328125 3.234375 -6.328125 L 1.71875 -6.328125 Z M 1.71875 -3.546875 "/></g></g></g></svg>